<svg xmlns="http://www.w3.org/2000/svg" version="1.1" xmlns:xlink="http://www.w3.org/1999/xlink" xmlns:svgjs="http://svgjs.dev/svgjs" width="128" height="128" viewBox="0 0 128 128"><g transform="matrix(0.8046875,0,0,0.8046875,12.680386707734264,1.9524738898026257)"><svg viewBox="0 0 78 95" data-background-color="#000000" preserveAspectRatio="xMidYMid meet" height="155" width="128" xmlns="http://www.w3.org/2000/svg" xmlns:xlink="http://www.w3.org/1999/xlink"><g id="tight-bounds" transform="matrix(1,0,0,1,-0.13660352624536642,-0.24049999999999727)"><svg viewBox="0 0 78.27320705249073 95.481" height="95.481" width="78.27320705249073"><g><svg viewBox="0 0 78.27320705249073 95.481" height="95.481" width="78.27320705249073"><g><svg viewBox="0 0 78.27320705249073 95.481" height="95.481" width="78.27320705249073"><g id="textblocktransform"><svg viewBox="0 0 78.27320705249073 95.481" height="95.481" width="78.27320705249073" id="textblock"><g><svg viewBox="0 0 78.27320705249073 95.481" height="95.481" width="78.27320705249073"><g><svg viewBox="0 0 78.27320705249073 95.481" height="95.481" width="78.27320705249073"><g><svg xmlns="http://www.w3.org/2000/svg" data-name="Layer 1" viewBox="28.81 26.203485701691147 36.19033372416786 44.146514298308844" x="0" y="0" height="95.481" width="78.27320705249073" class="icon-icon-0" data-fill-palette-color="accent" id="icon-0"></svg></g></svg></g></svg></g></svg></g></svg></g><g></g></svg></g><defs></defs><mask id="be5b226f-e29c-4466-83c3-04c4abcb604f"><g id="SvgjsG1151"><svg viewBox="0 0 78.27320705249073 95.481" height="95.481" width="78.27320705249073"><g><svg viewBox="0 0 78.27320705249073 95.481" height="95.481" width="78.27320705249073"><g><svg viewBox="0 0 78.27320705249073 95.481" height="95.481" width="78.27320705249073"><g id="SvgjsG1150"><svg viewBox="0 0 78.27320705249073 95.481" height="95.481" width="78.27320705249073" id="SvgjsSvg1149"><g><svg viewBox="0 0 78.27320705249073 95.481" height="95.481" width="78.27320705249073"><g><svg viewBox="0 0 78.27320705249073 95.481" height="95.481" width="78.27320705249073"><g><svg xmlns="http://www.w3.org/2000/svg" data-name="Layer 1" viewBox="28.81 26.203485701691147 36.19033372416786 44.146514298308844" x="0" y="0" height="95.481" width="78.27320705249073" class="icon-icon-0" data-fill-palette-color="accent" id="SvgjsSvg1148"><path d="M40.68 30.5a2 2 0 0 0-1.62 2v6.72h0V57.66a2 2 0 0 1-2.24 2 8.73 8.73 0 0 0-1.13-0.07c-3.8 0-6.88 2.41-6.88 5.38s3.08 5.38 6.88 5.38 6.88-2.41 6.88-5.37V40.16a2 2 0 0 1 1.62-2l14.88-2.87a2 2 0 0 1 2.38 2V52.66a2 2 0 0 1-2.24 2 8.73 8.73 0 0 0-1.13-0.07c-3.8 0-6.87 2.41-6.87 5.38s3.08 5.38 6.88 5.38S65 62.91 65 59.94V28.24a2 2 0 0 0-2.38-2Z" fill="white"></path></svg></g></svg></g></svg></g></svg></g></svg></g><g></g></svg></g><defs><mask></mask></defs></svg><rect width="78.27320705249073" height="95.481" fill="black" stroke="none" visibility="hidden"></rect></g></mask><linearGradient x1="0" x2="1" y1="0.578" y2="0.595" id="65af1dc6-402b-4dd6-9cd8-f33aaf01e214"><stop stop-color="#6ee2f5" offset="0"></stop><stop stop-color="#6454f0" offset="1"></stop></linearGradient><rect width="78.27320705249073" height="95.481" fill="url(#65af1dc6-402b-4dd6-9cd8-f33aaf01e214)" mask="url(#be5b226f-e29c-4466-83c3-04c4abcb604f)" data-fill-palette-color="accent"></rect></svg><rect width="78.27320705249073" height="95.481" fill="none" stroke="none" visibility="hidden"></rect></g></svg></g></svg>