<svg xmlns="http://www.w3.org/2000/svg" version="1.1" xmlns:xlink="http://www.w3.org/1999/xlink" xmlns:svgjs="http://svgjs.dev/svgjs" width="2000" height="1353" viewBox="0 0 2000 1353"><g transform="matrix(1,0,0,1,1.268016127779788,0.5477732793522136)"><svg viewBox="0 0 365 247" data-background-color="#000000" preserveAspectRatio="xMidYMid meet" height="1353" width="2000" xmlns="http://www.w3.org/2000/svg" xmlns:xlink="http://www.w3.org/1999/xlink"><g id="tight-bounds" transform="matrix(1,0,0,1,-0.23141294331981044,-0.09999999999999432)"><svg viewBox="0 0 365.4628258866396 247.2" height="247.2" width="365.4628258866396"><rect width="365.4628258866396" height="247.2" fill="url(#45e4d387-1aa2-4b5f-a58e-e762442408ed)" mask="url(#31bd6795-cd95-4fca-a35f-c3ef5077eb2b)" data-fill-palette-color="tertiary"></rect><g><svg viewBox="0 0 395.52 267.5307502556426" height="247.2" width="365.4628258866396"><g transform="matrix(1,0,0,1,0,198.3838620772379)"><svg viewBox="0 0 395.52 69.14688817840471" height="69.14688817840471" width="395.52"><g id="textblocktransform"><svg viewBox="0 0 395.52 69.14688817840471" height="69.14688817840471" width="395.52" id="textblock"><g><svg viewBox="0 0 395.52 69.14688817840471" height="69.14688817840471" width="395.52"><g transform="matrix(1,0,0,1,0,0)"><svg width="395.52" viewBox="2.5 -34.806578371482004 262.28 45.856578371482" height="69.14688817840471" data-palette-color="url(#7e9f7b7d-421f-405b-9765-ca66d4159670)"></svg></g></svg></g></svg></g></svg></g><g transform="matrix(1,0,0,1,114.89198973498611,0)"><svg viewBox="0 0 165.73602053002776 165.73602053002776" height="165.73602053002776" width="165.73602053002776"><g><svg></svg></g><g id="icon-0"><svg viewBox="0 0 165.73602053002776 165.73602053002776" height="165.73602053002776" width="165.73602053002776"><g><path d="M0 82.868c0-45.767 37.101-82.868 82.868-82.868 45.767 0 82.868 37.101 82.868 82.868 0 45.767-37.101 82.868-82.868 82.868-45.767 0-82.868-37.101-82.868-82.868zM82.868 159.5c42.323 0 76.632-34.309 76.632-76.632 0-42.323-34.309-76.632-76.632-76.632-42.323 0-76.632 34.309-76.632 76.632 0 42.323 34.309 76.632 76.632 76.632z" data-fill-palette-color="tertiary" fill="url(#45e4d387-1aa2-4b5f-a58e-e762442408ed)" stroke="transparent"></path></g><g transform="matrix(1,0,0,1,45.53102733857613,37.32276431120366)"><svg viewBox="0 0 74.6739658528755 91.09049190762043" height="91.09049190762043" width="74.6739658528755"><g><svg xmlns="http://www.w3.org/2000/svg" data-name="Layer 1" viewBox="28.81 26.203485701691147 36.19033372416786 44.146514298308844" x="0" y="0" height="91.09049190762043" width="74.6739658528755" class="icon-cg-0" data-fill-palette-color="accent" id="cg-0"></svg></g></svg></g></svg></g></svg></g><g></g></svg></g><defs></defs><mask id="f60f0700-38b2-4b6c-bf88-66a244be3191"><g id="SvgjsG1055"><svg viewBox="0 0 365.4628258866396 247.2" height="247.2" width="365.4628258866396"><g><svg viewBox="0 0 395.52 267.5307502556426" height="247.2" width="365.4628258866396"><g transform="matrix(1,0,0,1,0,198.3838620772379)"><svg viewBox="0 0 395.52 69.14688817840471" height="69.14688817840471" width="395.52"><g id="SvgjsG1054"><svg viewBox="0 0 395.52 69.14688817840471" height="69.14688817840471" width="395.52" id="SvgjsSvg1053"><g><svg viewBox="0 0 395.52 69.14688817840471" height="69.14688817840471" width="395.52"><g transform="matrix(1,0,0,1,0,0)"><svg width="395.52" viewBox="2.5 -34.806578371482004 262.28 45.856578371482" height="69.14688817840471" data-palette-color="url(#7e9f7b7d-421f-405b-9765-ca66d4159670)"><path d="M3.8 0.6L3.8 0.6Q3 0.6 2.75-0.15 2.5-0.9 2.5-1.95L2.5-1.95Q2.5-3.7 2.7-5.68 2.9-7.65 3.1-9.55L3.1-9.55 5.85-34.75 10-34.8Q12.05-34.85 12.83-34.52 13.6-34.2 13.85-33.2L13.85-33.2 21.25-6.15 18.65-6.25 30.2-31.4Q30.85-32.8 32.6-33.77 34.35-34.75 36.85-34.75L36.85-34.75Q37.85-34.75 38.38-34.27 38.9-33.8 38.75-32.45L38.75-32.45 35.35 0.4 31.35 0.4Q30.7 0.4 30.35-0.4 30-1.2 30-2.65L30-2.65Q30-4.7 30.13-7.1 30.25-9.5 30.5-11.7L30.5-11.7 32.35-27.5 32.65-27.3 26.1-13.2Q24.1-8.9 22.85-6.38 21.6-3.85 20.83-2.6 20.05-1.35 19.5-0.98 18.95-0.6 18.35-0.6L18.35-0.6Q17.7-0.6 17.28-0.88 16.85-1.15 16.6-2.05L16.6-2.05 9.15-27.55 9.6-27.6 8.2-14.65Q7.75-10.7 7.8-8.35 7.85-6 8.13-4.73 8.4-3.45 8.65-2.75 8.9-2.05 8.9-1.45L8.9-1.45Q8.9-0.9 8.3-0.53 7.7-0.15 6.8 0.1 5.9 0.35 5.08 0.48 4.25 0.6 3.8 0.6ZM49.1 0.8L49.1 0.8Q45.25 0.8 43.15-1.63 41.05-4.05 41.05-8.3L41.05-8.3Q41.05-11.85 42.05-14.8 43.05-17.75 44.85-19.95 46.65-22.15 49.07-23.35 51.5-24.55 54.35-24.55L54.35-24.55Q57.75-24.55 59.55-23.1 61.35-21.65 61.35-18.95L61.35-18.95Q61.35-16.2 59.52-14.15 57.7-12.1 54.27-10.65 50.85-9.2 46.1-8.2L46.1-8.2 45.45-11.2Q48.2-11.55 50.5-12.4 52.8-13.25 54.2-14.68 55.6-16.1 55.6-18.05L55.6-18.05Q55.6-19.4 55.07-20.1 54.55-20.8 53.2-20.8L53.2-20.8Q51.15-20.8 49.72-19.3 48.3-17.8 47.57-15.4 46.85-13 46.85-10.3L46.85-10.3Q46.85-6.65 47.97-5.43 49.1-4.2 51.3-4.2L51.3-4.2Q53.6-4.2 55.32-4.93 57.05-5.65 58.3-6.45L58.3-6.45Q58.7-6.7 59-6.85 59.3-7 59.5-7L59.5-7Q59.75-7 59.9-6.8 60.05-6.6 60.05-6.35L60.05-6.35Q60.05-5.45 59.25-4.25 58.45-3.05 56.97-1.9 55.5-0.75 53.5 0.03 51.5 0.8 49.1 0.8ZM69.7 0.7L66.2 0.7Q65.3 0.7 64.8-0.4 64.3-1.5 64.35-2.95L64.35-2.95Q64.4-4.65 64.65-7 64.9-9.35 65.15-11.65L65.15-11.65 66.55-23.45Q66.85-25.7 66.7-27.45 66.55-29.2 66.3-30.55 66.05-31.9 66.05-32.85L66.05-32.85Q66.05-33.4 66.92-33.83 67.8-34.25 68.95-34.52 70.1-34.8 70.9-34.8L70.9-34.8Q71.75-34.8 72.4-33.58 73.05-32.35 73.05-30.75L73.05-30.75Q73.05-30.4 72.95-28.8 72.85-27.2 72.55-25.15L72.55-25.15 70.95-13.65Q70.45-10.05 70.25-6.48 70.05-2.9 69.7 0.7L69.7 0.7ZM84.49 0.75L84.49 0.75Q80.19 0.75 77.82-1.78 75.44-4.3 75.44-9.2L75.44-9.2Q75.44-12.45 76.52-15.23 77.59-18 79.44-20.1 81.29-22.2 83.72-23.38 86.14-24.55 88.84-24.55L88.84-24.55Q93.14-24.55 95.42-22 97.69-19.45 97.69-14.3L97.69-14.3Q97.69-11.2 96.67-8.47 95.64-5.75 93.84-3.68 92.04-1.6 89.64-0.43 87.24 0.75 84.49 0.75ZM85.69-3L85.69-3Q87.59-3 88.97-4.4 90.34-5.8 91.07-8.25 91.79-10.7 91.79-13.75L91.79-13.75Q91.79-17 90.82-18.9 89.84-20.8 87.59-20.8L87.59-20.8Q85.74-20.8 84.32-19.4 82.89-18 82.12-15.58 81.34-13.15 81.34-10.05L81.34-10.05Q81.34-6.6 82.44-4.8 83.54-3 85.69-3ZM105.04 0.8L105.04 0.8Q102.34 0.8 101.17-1.4 99.99-3.6 99.99-7.85L99.99-7.85Q99.99-11.5 101.02-14.55 102.04-17.6 103.89-19.83 105.74-22.05 108.19-23.28 110.64-24.5 113.49-24.5L113.49-24.5Q115.24-24.5 116.97-23.93 118.69-23.35 119.94-22.75L119.94-22.75 118.34-17.85Q116.99-18.75 115.52-19.4 114.04-20.05 112.82-20.4 111.59-20.75 110.94-20.75L110.94-20.75Q109.49-20.75 108.29-19.38 107.09-18 106.37-15.58 105.64-13.15 105.64-10L105.64-10Q105.64-7.1 106.07-5.6 106.49-4.1 107.44-4.1L107.44-4.1Q108.24-4.1 109.92-5.58 111.59-7.05 113.82-10.5 116.04-13.95 118.49-19.85L118.49-19.85 119.94-15.4Q117.29-9.4 114.69-5.85 112.09-2.3 109.67-0.75 107.24 0.8 105.04 0.8ZM121.74 0.5L118.24 0.5Q117.69 0.5 117.29-0.13 116.89-0.75 116.69-1.65 116.49-2.55 116.49-3.3L116.49-3.3Q116.49-4.55 116.92-6.15 117.34-7.75 117.99-10.2L117.99-10.2 118.99-13.95 117.54-15.55 118.09-20.8 118.79-21.65 119.19-34.8 123.09-34.8Q123.84-34.8 124.32-34.15 124.79-33.5 125.02-32.63 125.24-31.75 125.24-30.95L125.24-30.95Q125.24-30.45 125.19-29.83 125.14-29.2 124.99-28.13 124.84-27.05 124.54-25.15L124.54-25.15 122.89-13.65Q122.54-11.25 122.29-8.75 122.04-6.25 121.92-3.9 121.79-1.55 121.74 0.5L121.74 0.5ZM134.79 11.05L134.79 11.05Q132.64 11.05 130.99 10.38 129.34 9.7 128.39 8.2 127.44 6.7 127.44 4.2L127.44 4.2Q127.44 3.7 127.61 3.53 127.79 3.35 127.99 3.35L127.99 3.35Q128.24 3.35 128.59 3.55 128.94 3.75 129.59 4.15L129.59 4.15Q130.49 4.75 131.66 5.43 132.84 6.1 134.19 6.6 135.54 7.1 136.84 7.1L136.84 7.1Q138.14 7.1 139.24 6.28 140.34 5.45 141.31 3.4 142.29 1.35 143.19-2.25L143.19-2.25 145.99-13.65 146.29-13.7Q144.44-8.8 142.01-5.63 139.59-2.45 137.11-0.93 134.64 0.6 132.64 0.6L132.64 0.6Q130.54 0.6 129.54-0.55 128.54-1.7 128.54-3.75L128.54-3.75Q128.54-4.75 128.66-5.95 128.79-7.15 129.09-9.7L129.09-9.7 130.94-24.55 134.44-24.55Q135.29-24.55 135.74-23.58 136.19-22.6 136.19-21.2L136.19-21.2Q136.19-20.2 136.09-19.43 135.99-18.65 135.81-17.68 135.64-16.7 135.34-14.9L135.34-14.9 134.64-10.6Q134.44-9.2 134.31-8.13 134.19-7.05 134.19-6.35L134.19-6.35Q134.19-5.3 134.41-4.78 134.64-4.25 135.44-4.25L135.44-4.25Q136.29-4.25 137.41-5.35 138.54-6.45 139.74-8.2 140.94-9.95 141.96-11.95 142.99-13.95 143.64-15.83 144.29-17.7 144.29-18.95L144.29-18.95Q144.29-19.8 144.14-20.78 143.99-21.75 143.99-22.5L143.99-22.5Q143.99-23.1 144.96-23.58 145.94-24.05 147.16-24.3 148.39-24.55 149.09-24.55L149.09-24.55Q149.79-24.55 150.21-23.9 150.64-23.25 150.64-21.45L150.64-21.45Q150.64-20.6 150.36-18.93 150.09-17.25 149.99-15.8L149.99-15.8 148.74-1.5Q148.44 1.75 147.11 4.13 145.79 6.5 143.79 8.03 141.79 9.55 139.44 10.3 137.09 11.05 134.79 11.05ZM165.49 0.7L165.49 0.7Q165.09 0.7 164.71 0.45 164.34 0.2 164.19-0.75L164.19-0.75Q163.64-4.6 162.71-8.7 161.79-12.8 160.71-16.88 159.64-20.95 158.59-24.65L158.59-24.65Q157.94-27 157.44-28.05 156.94-29.1 156.39-29.85L156.39-29.85Q155.84-30.6 155.26-31.1 154.69-31.6 154.69-32.05L154.69-32.05Q154.69-32.55 155.41-33 156.14-33.45 157.16-33.83 158.19-34.2 159.21-34.4 160.24-34.6 160.84-34.6L160.84-34.6Q161.69-34.6 162.36-33.75 163.04-32.9 163.71-30.93 164.39-28.95 165.14-25.5L165.14-25.5 169.69-4.65 167.64-4.05 177.59-24.55Q178.29-26 178.64-26.95 178.99-27.9 179.16-28.73 179.34-29.55 179.44-30.55L179.44-30.55Q179.54-31.5 180.39-32.25 181.24-33 182.34-33.55 183.44-34.1 184.44-34.4 185.44-34.7 185.89-34.7L185.89-34.7Q187.24-34.7 187.24-33.85L187.24-33.85Q187.24-33.3 186.84-32.55L186.84-32.55 171.64-2.6Q171.29-1.9 170.46-1.13 169.64-0.35 168.41 0.18 167.19 0.7 165.49 0.7ZM190.98 0.8L190.98 0.8Q187.13 0.8 185.03-1.63 182.93-4.05 182.93-8.3L182.93-8.3Q182.93-11.85 183.93-14.8 184.93-17.75 186.73-19.95 188.53-22.15 190.96-23.35 193.38-24.55 196.23-24.55L196.23-24.55Q199.63-24.55 201.43-23.1 203.23-21.65 203.23-18.95L203.23-18.95Q203.23-16.2 201.41-14.15 199.58-12.1 196.16-10.65 192.73-9.2 187.98-8.2L187.98-8.2 187.33-11.2Q190.08-11.55 192.38-12.4 194.68-13.25 196.08-14.68 197.48-16.1 197.48-18.05L197.48-18.05Q197.48-19.4 196.96-20.1 196.43-20.8 195.08-20.8L195.08-20.8Q193.03-20.8 191.61-19.3 190.18-17.8 189.46-15.4 188.73-13 188.73-10.3L188.73-10.3Q188.73-6.65 189.86-5.43 190.98-4.2 193.18-4.2L193.18-4.2Q195.48-4.2 197.21-4.93 198.93-5.65 200.18-6.45L200.18-6.45Q200.58-6.7 200.88-6.85 201.18-7 201.38-7L201.38-7Q201.63-7 201.78-6.8 201.93-6.6 201.93-6.35L201.93-6.35Q201.93-5.45 201.13-4.25 200.33-3.05 198.86-1.9 197.38-0.75 195.38 0.03 193.38 0.8 190.98 0.8ZM211.38-1.2L211.38-1.2 210.18-8.75Q212.03-13.55 213.96-17.07 215.88-20.6 217.88-22.55 219.88-24.5 221.93-24.5L221.93-24.5Q223.08-24.5 223.58-23.78 224.08-23.05 224.08-21.95L224.08-21.95Q224.08-20.95 223.86-20.03 223.63-19.1 223.21-18.5 222.78-17.9 222.18-17.9L222.18-17.9Q221.63-17.9 220.96-18.25 220.28-18.6 219.13-18.6L219.13-18.6Q218.38-18.6 217.23-17.05 216.08-15.5 214.86-12.93 213.63-10.35 212.68-7.28 211.73-4.2 211.38-1.2ZM207.18 0.7L207.18 0.7Q206.53 0.7 206.21 0.48 205.88 0.25 205.86-0.7 205.83-1.65 206.08-3.75L206.08-3.75 208.43-24.55 211.93-24.55Q212.68-24.55 213.28-23.45 213.88-22.35 213.88-20.95L213.88-20.95Q213.88-20.3 213.51-18.93 213.13-17.55 212.63-16.03 212.13-14.5 211.73-13.35L211.73-13.35 210.43-9.25 212.28-9.55 211.38-1.2Q211.33-0.7 210.78-0.33 210.23 0.05 209.51 0.28 208.78 0.5 208.13 0.6 207.48 0.7 207.18 0.7ZM231.63 0.8L231.63 0.8Q227.83 0.8 225.65-0.38 223.48-1.55 223.48-3.55L223.48-3.55Q223.48-4.45 223.75-5.23 224.03-6 224.58-6L224.58-6Q224.78-6 225.03-5.9 225.28-5.8 225.98-5.35L225.98-5.35Q226.98-4.7 228.2-4.15 229.43-3.6 230.7-3.28 231.98-2.95 233.08-2.95L233.08-2.95Q234.68-2.95 235.4-3.73 236.13-4.5 236.13-5.8L236.13-5.8Q236.13-6.75 235.55-7.38 234.98-8 233.73-8.8L233.73-8.8 230.63-10.8Q228.68-12.05 227.35-13.48 226.03-14.9 226.03-17.2L226.03-17.2Q226.03-20.45 228.53-22.48 231.03-24.5 235.58-24.5L235.58-24.5Q238.78-24.5 240.28-23.85 241.78-23.2 241.78-21.6L241.78-21.6Q241.78-20.35 241.4-19.5 241.03-18.65 240.38-18.65L240.38-18.65Q240.18-18.65 239.85-18.75 239.53-18.85 239.28-19L239.28-19Q238.88-19.25 238.03-19.7 237.18-20.15 236.13-20.53 235.08-20.9 233.93-20.9L233.93-20.9Q232.78-20.9 232.05-20.23 231.33-19.55 231.33-18.4L231.33-18.4Q231.33-17.45 231.93-16.8 232.53-16.15 233.93-15.45L233.93-15.45 237.18-13.95Q239.23-13 240.5-11.73 241.78-10.45 241.78-7.95L241.78-7.95Q241.78-5 240.35-3.05 238.93-1.1 236.6-0.15 234.28 0.8 231.63 0.8ZM252.53 0.8L252.53 0.8Q248.68 0.8 246.58-1.63 244.48-4.05 244.48-8.3L244.48-8.3Q244.48-11.85 245.48-14.8 246.48-17.75 248.28-19.95 250.08-22.15 252.5-23.35 254.93-24.55 257.78-24.55L257.78-24.55Q261.18-24.55 262.98-23.1 264.78-21.65 264.78-18.95L264.78-18.95Q264.78-16.2 262.95-14.15 261.13-12.1 257.7-10.65 254.28-9.2 249.53-8.2L249.53-8.2 248.88-11.2Q251.63-11.55 253.93-12.4 256.23-13.25 257.63-14.68 259.03-16.1 259.03-18.05L259.03-18.05Q259.03-19.4 258.5-20.1 257.98-20.8 256.63-20.8L256.63-20.8Q254.58-20.8 253.15-19.3 251.73-17.8 251-15.4 250.28-13 250.28-10.3L250.28-10.3Q250.28-6.65 251.4-5.43 252.53-4.2 254.73-4.2L254.73-4.2Q257.03-4.2 258.75-4.93 260.48-5.65 261.73-6.45L261.73-6.45Q262.13-6.7 262.43-6.85 262.73-7 262.93-7L262.93-7Q263.18-7 263.33-6.8 263.48-6.6 263.48-6.35L263.48-6.35Q263.48-5.45 262.68-4.25 261.88-3.05 260.4-1.9 258.93-0.75 256.93 0.03 254.93 0.8 252.53 0.8Z" opacity="1" transform="matrix(1,0,0,1,0,0)" fill="white" class="wordmark-text-0" id="SvgjsPath1052"></path></svg></g></svg></g></svg></g></svg></g><g transform="matrix(1,0,0,1,114.89198973498611,0)"><svg viewBox="0 0 165.73602053002776 165.73602053002776" height="165.73602053002776" width="165.73602053002776"><g><svg></svg></g><g id="SvgjsG1051"><svg viewBox="0 0 165.73602053002776 165.73602053002776" height="165.73602053002776" width="165.73602053002776"><g><path d="M0 82.868c0-45.767 37.101-82.868 82.868-82.868 45.767 0 82.868 37.101 82.868 82.868 0 45.767-37.101 82.868-82.868 82.868-45.767 0-82.868-37.101-82.868-82.868zM82.868 159.5c42.323 0 76.632-34.309 76.632-76.632 0-42.323-34.309-76.632-76.632-76.632-42.323 0-76.632 34.309-76.632 76.632 0 42.323 34.309 76.632 76.632 76.632z" fill="black" stroke="transparent"></path></g><g transform="matrix(1,0,0,1,45.53102733857613,37.32276431120366)"><svg viewBox="0 0 74.6739658528755 91.09049190762043" height="91.09049190762043" width="74.6739658528755"><g><svg xmlns="http://www.w3.org/2000/svg" data-name="Layer 1" viewBox="28.81 26.203485701691147 36.19033372416786 44.146514298308844" x="0" y="0" height="91.09049190762043" width="74.6739658528755" class="icon-cg-0" data-fill-palette-color="accent" id="SvgjsSvg1050"><path d="M40.68 30.5a2 2 0 0 0-1.62 2v6.72h0V57.66a2 2 0 0 1-2.24 2 8.73 8.73 0 0 0-1.13-0.07c-3.8 0-6.88 2.41-6.88 5.38s3.08 5.38 6.88 5.38 6.88-2.41 6.88-5.37V40.16a2 2 0 0 1 1.62-2l14.88-2.87a2 2 0 0 1 2.38 2V52.66a2 2 0 0 1-2.24 2 8.73 8.73 0 0 0-1.13-0.07c-3.8 0-6.87 2.41-6.87 5.38s3.08 5.38 6.88 5.38S65 62.91 65 59.94V28.24a2 2 0 0 0-2.38-2Z" fill="black"></path></svg></g></svg></g></svg></g></svg></g><g></g></svg></g><defs><mask></mask></defs></svg><rect width="365.4628258866396" height="247.2" fill="black" stroke="none" visibility="hidden"></rect></g></mask><linearGradient x1="0" x2="1" y1="0.578" y2="0.595" id="7e9f7b7d-421f-405b-9765-ca66d4159670"><stop stop-color="#6ee2f5" offset="0"></stop><stop stop-color="#6454f0" offset="1"></stop></linearGradient><rect width="365.4628258866396" height="247.2" fill="url(#7e9f7b7d-421f-405b-9765-ca66d4159670)" mask="url(#f60f0700-38b2-4b6c-bf88-66a244be3191)" data-fill-palette-color="primary"></rect><mask id="f42f6022-7ce6-40ac-91b3-d9203f39019d"><g id="SvgjsG1078"><svg viewBox="0 0 365.4628258866396 247.2" height="247.2" width="365.4628258866396"><g><svg viewBox="0 0 395.52 267.5307502556426" height="247.2" width="365.4628258866396"><g transform="matrix(1,0,0,1,0,198.3838620772379)"><svg viewBox="0 0 395.52 69.14688817840471" height="69.14688817840471" width="395.52"><g id="SvgjsG1077"><svg viewBox="0 0 395.52 69.14688817840471" height="69.14688817840471" width="395.52" id="SvgjsSvg1076"><g><svg viewBox="0 0 395.52 69.14688817840471" height="69.14688817840471" width="395.52"><g transform="matrix(1,0,0,1,0,0)"><svg width="395.52" viewBox="2.5 -34.806578371482004 262.28 45.856578371482" height="69.14688817840471" data-palette-color="url(#7e9f7b7d-421f-405b-9765-ca66d4159670)"></svg></g></svg></g></svg></g></svg></g><g transform="matrix(1,0,0,1,114.89198973498611,0)"><svg viewBox="0 0 165.73602053002776 165.73602053002776" height="165.73602053002776" width="165.73602053002776"><g><svg></svg></g><g id="SvgjsG1075"><svg viewBox="0 0 165.73602053002776 165.73602053002776" height="165.73602053002776" width="165.73602053002776"><g><path d="M0 82.868c0-45.767 37.101-82.868 82.868-82.868 45.767 0 82.868 37.101 82.868 82.868 0 45.767-37.101 82.868-82.868 82.868-45.767 0-82.868-37.101-82.868-82.868zM82.868 159.5c42.323 0 76.632-34.309 76.632-76.632 0-42.323-34.309-76.632-76.632-76.632-42.323 0-76.632 34.309-76.632 76.632 0 42.323 34.309 76.632 76.632 76.632z" fill="black" stroke="transparent"></path></g><g transform="matrix(1,0,0,1,45.53102733857613,37.32276431120366)"><svg viewBox="0 0 74.6739658528755 91.09049190762043" height="91.09049190762043" width="74.6739658528755"><g><svg xmlns="http://www.w3.org/2000/svg" data-name="Layer 1" viewBox="28.81 26.203485701691147 36.19033372416786 44.146514298308844" x="0" y="0" height="91.09049190762043" width="74.6739658528755" class="icon-cg-0" data-fill-palette-color="accent" id="SvgjsSvg1074"><path d="M40.68 30.5a2 2 0 0 0-1.62 2v6.72h0V57.66a2 2 0 0 1-2.24 2 8.73 8.73 0 0 0-1.13-0.07c-3.8 0-6.88 2.41-6.88 5.38s3.08 5.38 6.88 5.38 6.88-2.41 6.88-5.37V40.16a2 2 0 0 1 1.62-2l14.88-2.87a2 2 0 0 1 2.38 2V52.66a2 2 0 0 1-2.24 2 8.73 8.73 0 0 0-1.13-0.07c-3.8 0-6.87 2.41-6.87 5.38s3.08 5.38 6.88 5.38S65 62.91 65 59.94V28.24a2 2 0 0 0-2.38-2Z" fill="white"></path></svg></g></svg></g></svg></g></svg></g><g></g></svg></g><defs><mask></mask></defs><mask><g id="SvgjsG1073"><svg viewBox="0 0 365.4628258866396 247.2" height="247.2" width="365.4628258866396"><g><svg viewBox="0 0 395.52 267.5307502556426" height="247.2" width="365.4628258866396"><g transform="matrix(1,0,0,1,0,198.3838620772379)"><svg viewBox="0 0 395.52 69.14688817840471" height="69.14688817840471" width="395.52"><g id="SvgjsG1072"><svg viewBox="0 0 395.52 69.14688817840471" height="69.14688817840471" width="395.52" id="SvgjsSvg1071"><g><svg viewBox="0 0 395.52 69.14688817840471" height="69.14688817840471" width="395.52"><g transform="matrix(1,0,0,1,0,0)"><svg width="395.52" viewBox="2.5 -34.806578371482004 262.28 45.856578371482" height="69.14688817840471" data-palette-color="url(#7e9f7b7d-421f-405b-9765-ca66d4159670)"><path d="M3.8 0.6L3.8 0.6Q3 0.6 2.75-0.15 2.5-0.9 2.5-1.95L2.5-1.95Q2.5-3.7 2.7-5.68 2.9-7.65 3.1-9.55L3.1-9.55 5.85-34.75 10-34.8Q12.05-34.85 12.83-34.52 13.6-34.2 13.85-33.2L13.85-33.2 21.25-6.15 18.65-6.25 30.2-31.4Q30.85-32.8 32.6-33.77 34.35-34.75 36.85-34.75L36.85-34.75Q37.85-34.75 38.38-34.27 38.9-33.8 38.75-32.45L38.75-32.45 35.35 0.4 31.35 0.4Q30.7 0.4 30.35-0.4 30-1.2 30-2.65L30-2.65Q30-4.7 30.13-7.1 30.25-9.5 30.5-11.7L30.5-11.7 32.35-27.5 32.65-27.3 26.1-13.2Q24.1-8.9 22.85-6.38 21.6-3.85 20.83-2.6 20.05-1.35 19.5-0.98 18.95-0.6 18.35-0.6L18.35-0.6Q17.7-0.6 17.28-0.88 16.85-1.15 16.6-2.05L16.6-2.05 9.15-27.55 9.6-27.6 8.2-14.65Q7.75-10.7 7.8-8.35 7.85-6 8.13-4.73 8.4-3.45 8.65-2.75 8.9-2.05 8.9-1.45L8.9-1.45Q8.9-0.9 8.3-0.53 7.7-0.15 6.8 0.1 5.9 0.35 5.08 0.48 4.25 0.6 3.8 0.6ZM49.1 0.8L49.1 0.8Q45.25 0.8 43.15-1.63 41.05-4.05 41.05-8.3L41.05-8.3Q41.05-11.85 42.05-14.8 43.05-17.75 44.85-19.95 46.65-22.15 49.07-23.35 51.5-24.55 54.35-24.55L54.35-24.55Q57.75-24.55 59.55-23.1 61.35-21.65 61.35-18.95L61.35-18.95Q61.35-16.2 59.52-14.15 57.7-12.1 54.27-10.65 50.85-9.2 46.1-8.2L46.1-8.2 45.45-11.2Q48.2-11.55 50.5-12.4 52.8-13.25 54.2-14.68 55.6-16.1 55.6-18.05L55.6-18.05Q55.6-19.4 55.07-20.1 54.55-20.8 53.2-20.8L53.2-20.8Q51.15-20.8 49.72-19.3 48.3-17.8 47.57-15.4 46.85-13 46.85-10.3L46.85-10.3Q46.85-6.65 47.97-5.43 49.1-4.2 51.3-4.2L51.3-4.2Q53.6-4.2 55.32-4.93 57.05-5.65 58.3-6.45L58.3-6.45Q58.7-6.7 59-6.85 59.3-7 59.5-7L59.5-7Q59.75-7 59.9-6.8 60.05-6.6 60.05-6.35L60.05-6.35Q60.05-5.45 59.25-4.25 58.45-3.05 56.97-1.9 55.5-0.75 53.5 0.03 51.5 0.8 49.1 0.8ZM69.7 0.7L66.2 0.7Q65.3 0.7 64.8-0.4 64.3-1.5 64.35-2.95L64.35-2.95Q64.4-4.65 64.65-7 64.9-9.35 65.15-11.65L65.15-11.65 66.55-23.45Q66.85-25.7 66.7-27.45 66.55-29.2 66.3-30.55 66.05-31.9 66.05-32.85L66.05-32.85Q66.05-33.4 66.92-33.83 67.8-34.25 68.95-34.52 70.1-34.8 70.9-34.8L70.9-34.8Q71.75-34.8 72.4-33.58 73.05-32.35 73.05-30.75L73.05-30.75Q73.05-30.4 72.95-28.8 72.85-27.2 72.55-25.15L72.55-25.15 70.95-13.65Q70.45-10.05 70.25-6.48 70.05-2.9 69.7 0.7L69.7 0.7ZM84.49 0.75L84.49 0.75Q80.19 0.75 77.82-1.78 75.44-4.3 75.44-9.2L75.44-9.2Q75.44-12.45 76.52-15.23 77.59-18 79.44-20.1 81.29-22.2 83.72-23.38 86.14-24.55 88.84-24.55L88.84-24.55Q93.14-24.55 95.42-22 97.69-19.45 97.69-14.3L97.69-14.3Q97.69-11.2 96.67-8.47 95.64-5.75 93.84-3.68 92.04-1.6 89.64-0.43 87.24 0.75 84.49 0.75ZM85.69-3L85.69-3Q87.59-3 88.97-4.4 90.34-5.8 91.07-8.25 91.79-10.7 91.79-13.75L91.79-13.75Q91.79-17 90.82-18.9 89.84-20.8 87.59-20.8L87.59-20.8Q85.74-20.8 84.32-19.4 82.89-18 82.12-15.58 81.34-13.15 81.34-10.05L81.34-10.05Q81.34-6.6 82.44-4.8 83.54-3 85.69-3ZM105.04 0.8L105.04 0.8Q102.34 0.8 101.17-1.4 99.99-3.6 99.99-7.85L99.99-7.85Q99.99-11.5 101.02-14.55 102.04-17.6 103.89-19.83 105.74-22.05 108.19-23.28 110.64-24.5 113.49-24.5L113.49-24.5Q115.24-24.5 116.97-23.93 118.69-23.35 119.94-22.75L119.94-22.75 118.34-17.85Q116.99-18.75 115.52-19.4 114.04-20.05 112.82-20.4 111.59-20.75 110.94-20.75L110.94-20.75Q109.49-20.75 108.29-19.38 107.09-18 106.37-15.58 105.64-13.15 105.64-10L105.64-10Q105.64-7.1 106.07-5.6 106.49-4.1 107.44-4.1L107.44-4.1Q108.24-4.1 109.92-5.58 111.59-7.05 113.82-10.5 116.04-13.95 118.49-19.85L118.49-19.85 119.94-15.4Q117.29-9.4 114.69-5.85 112.09-2.3 109.67-0.75 107.24 0.8 105.04 0.8ZM121.74 0.5L118.24 0.5Q117.69 0.5 117.29-0.13 116.89-0.75 116.69-1.65 116.49-2.55 116.49-3.3L116.49-3.3Q116.49-4.55 116.92-6.15 117.34-7.75 117.99-10.2L117.99-10.2 118.99-13.95 117.54-15.55 118.09-20.8 118.79-21.65 119.19-34.8 123.09-34.8Q123.84-34.8 124.32-34.15 124.79-33.5 125.02-32.63 125.24-31.75 125.24-30.95L125.24-30.95Q125.24-30.45 125.19-29.83 125.14-29.2 124.99-28.13 124.84-27.05 124.54-25.15L124.54-25.15 122.89-13.65Q122.54-11.25 122.29-8.75 122.04-6.25 121.92-3.9 121.79-1.55 121.74 0.5L121.74 0.5ZM134.79 11.05L134.79 11.05Q132.64 11.05 130.99 10.38 129.34 9.7 128.39 8.2 127.44 6.7 127.44 4.2L127.44 4.2Q127.44 3.7 127.61 3.53 127.79 3.35 127.99 3.35L127.99 3.35Q128.24 3.35 128.59 3.55 128.94 3.75 129.59 4.15L129.59 4.15Q130.49 4.75 131.66 5.43 132.84 6.1 134.19 6.6 135.54 7.1 136.84 7.1L136.84 7.1Q138.14 7.1 139.24 6.28 140.34 5.45 141.31 3.4 142.29 1.35 143.19-2.25L143.19-2.25 145.99-13.65 146.29-13.7Q144.44-8.8 142.01-5.63 139.59-2.45 137.11-0.93 134.64 0.6 132.64 0.6L132.64 0.6Q130.54 0.6 129.54-0.55 128.54-1.7 128.54-3.75L128.54-3.75Q128.54-4.75 128.66-5.95 128.79-7.15 129.09-9.7L129.09-9.7 130.94-24.55 134.44-24.55Q135.29-24.55 135.74-23.58 136.19-22.6 136.19-21.2L136.19-21.2Q136.19-20.2 136.09-19.43 135.99-18.65 135.81-17.68 135.64-16.7 135.34-14.9L135.34-14.9 134.64-10.6Q134.44-9.2 134.31-8.13 134.19-7.05 134.19-6.35L134.19-6.35Q134.19-5.3 134.41-4.78 134.64-4.25 135.44-4.25L135.44-4.25Q136.29-4.25 137.41-5.35 138.54-6.45 139.74-8.2 140.94-9.95 141.96-11.95 142.99-13.95 143.64-15.83 144.29-17.7 144.29-18.95L144.29-18.95Q144.29-19.8 144.14-20.78 143.99-21.75 143.99-22.5L143.99-22.5Q143.99-23.1 144.96-23.58 145.94-24.05 147.16-24.3 148.39-24.55 149.09-24.55L149.09-24.55Q149.79-24.55 150.21-23.9 150.64-23.25 150.64-21.45L150.64-21.45Q150.64-20.6 150.36-18.93 150.09-17.25 149.99-15.8L149.99-15.8 148.74-1.5Q148.44 1.75 147.11 4.13 145.79 6.5 143.79 8.03 141.79 9.55 139.44 10.3 137.09 11.05 134.79 11.05ZM165.49 0.7L165.49 0.7Q165.09 0.7 164.71 0.45 164.34 0.2 164.19-0.75L164.19-0.75Q163.64-4.6 162.71-8.7 161.79-12.8 160.71-16.88 159.64-20.95 158.59-24.65L158.59-24.65Q157.94-27 157.44-28.05 156.94-29.1 156.39-29.85L156.39-29.85Q155.84-30.6 155.26-31.1 154.69-31.6 154.69-32.05L154.69-32.05Q154.69-32.55 155.41-33 156.14-33.45 157.16-33.83 158.19-34.2 159.21-34.4 160.24-34.6 160.84-34.6L160.84-34.6Q161.69-34.6 162.36-33.75 163.04-32.9 163.71-30.93 164.39-28.95 165.14-25.5L165.14-25.5 169.69-4.65 167.64-4.05 177.59-24.55Q178.29-26 178.64-26.95 178.99-27.9 179.16-28.73 179.34-29.55 179.44-30.55L179.44-30.55Q179.54-31.5 180.39-32.25 181.24-33 182.34-33.55 183.44-34.1 184.44-34.4 185.44-34.7 185.89-34.7L185.89-34.7Q187.24-34.7 187.24-33.85L187.24-33.85Q187.24-33.3 186.84-32.55L186.84-32.55 171.64-2.6Q171.29-1.9 170.46-1.13 169.64-0.35 168.41 0.18 167.19 0.7 165.49 0.7ZM190.98 0.8L190.98 0.8Q187.13 0.8 185.03-1.63 182.93-4.05 182.93-8.3L182.93-8.3Q182.93-11.85 183.93-14.8 184.93-17.75 186.73-19.95 188.53-22.15 190.96-23.35 193.38-24.55 196.23-24.55L196.23-24.55Q199.63-24.55 201.43-23.1 203.23-21.65 203.23-18.95L203.23-18.95Q203.23-16.2 201.41-14.15 199.58-12.1 196.16-10.65 192.73-9.2 187.98-8.2L187.98-8.2 187.33-11.2Q190.08-11.55 192.38-12.4 194.68-13.25 196.08-14.68 197.48-16.1 197.48-18.05L197.48-18.05Q197.48-19.4 196.96-20.1 196.43-20.8 195.08-20.8L195.08-20.8Q193.03-20.8 191.61-19.3 190.18-17.8 189.46-15.4 188.73-13 188.73-10.3L188.73-10.3Q188.73-6.65 189.86-5.43 190.98-4.2 193.18-4.2L193.18-4.2Q195.48-4.2 197.21-4.93 198.93-5.65 200.18-6.45L200.18-6.45Q200.58-6.7 200.88-6.85 201.18-7 201.38-7L201.38-7Q201.63-7 201.78-6.8 201.93-6.6 201.93-6.35L201.93-6.35Q201.93-5.45 201.13-4.25 200.33-3.05 198.86-1.9 197.38-0.75 195.38 0.03 193.38 0.8 190.98 0.8ZM211.38-1.2L211.38-1.2 210.18-8.75Q212.03-13.55 213.96-17.07 215.88-20.6 217.88-22.55 219.88-24.5 221.93-24.5L221.93-24.5Q223.08-24.5 223.58-23.78 224.08-23.05 224.08-21.95L224.08-21.95Q224.08-20.95 223.86-20.03 223.63-19.1 223.21-18.5 222.78-17.9 222.18-17.9L222.18-17.9Q221.63-17.9 220.96-18.25 220.28-18.6 219.13-18.6L219.13-18.6Q218.38-18.6 217.23-17.05 216.08-15.5 214.86-12.93 213.63-10.35 212.68-7.28 211.73-4.2 211.38-1.2ZM207.18 0.7L207.18 0.7Q206.53 0.7 206.21 0.48 205.88 0.25 205.86-0.7 205.83-1.65 206.08-3.75L206.08-3.75 208.43-24.55 211.93-24.55Q212.68-24.55 213.28-23.45 213.88-22.35 213.88-20.95L213.88-20.95Q213.88-20.3 213.51-18.93 213.13-17.55 212.63-16.03 212.13-14.5 211.73-13.35L211.73-13.35 210.43-9.25 212.28-9.55 211.38-1.2Q211.33-0.7 210.78-0.33 210.23 0.05 209.51 0.28 208.78 0.5 208.13 0.6 207.48 0.7 207.18 0.7ZM231.63 0.8L231.63 0.8Q227.83 0.8 225.65-0.38 223.48-1.55 223.48-3.55L223.48-3.55Q223.48-4.45 223.75-5.23 224.03-6 224.58-6L224.58-6Q224.78-6 225.03-5.9 225.28-5.8 225.98-5.35L225.98-5.35Q226.98-4.7 228.2-4.15 229.43-3.6 230.7-3.28 231.98-2.95 233.08-2.95L233.08-2.95Q234.68-2.95 235.4-3.73 236.13-4.5 236.13-5.8L236.13-5.8Q236.13-6.75 235.55-7.38 234.98-8 233.73-8.8L233.73-8.8 230.63-10.8Q228.68-12.05 227.35-13.48 226.03-14.9 226.03-17.2L226.03-17.2Q226.03-20.45 228.53-22.48 231.03-24.5 235.58-24.5L235.58-24.5Q238.78-24.5 240.28-23.85 241.78-23.2 241.78-21.6L241.78-21.6Q241.78-20.35 241.4-19.5 241.03-18.65 240.38-18.65L240.38-18.65Q240.18-18.65 239.85-18.75 239.53-18.85 239.28-19L239.28-19Q238.88-19.25 238.03-19.7 237.18-20.15 236.13-20.53 235.08-20.9 233.93-20.9L233.93-20.9Q232.78-20.9 232.05-20.23 231.33-19.55 231.33-18.4L231.33-18.4Q231.33-17.45 231.93-16.8 232.53-16.15 233.93-15.45L233.93-15.45 237.18-13.95Q239.23-13 240.5-11.73 241.78-10.45 241.78-7.95L241.78-7.95Q241.78-5 240.35-3.05 238.93-1.1 236.6-0.15 234.28 0.8 231.63 0.8ZM252.53 0.8L252.53 0.8Q248.68 0.8 246.58-1.63 244.48-4.05 244.48-8.3L244.48-8.3Q244.48-11.85 245.48-14.8 246.48-17.75 248.28-19.95 250.08-22.15 252.5-23.35 254.93-24.55 257.78-24.55L257.78-24.55Q261.18-24.55 262.98-23.1 264.78-21.65 264.78-18.95L264.78-18.95Q264.78-16.2 262.95-14.15 261.13-12.1 257.7-10.65 254.28-9.2 249.53-8.2L249.53-8.2 248.88-11.2Q251.63-11.55 253.93-12.4 256.23-13.25 257.63-14.68 259.03-16.1 259.03-18.05L259.03-18.05Q259.03-19.4 258.5-20.1 257.98-20.8 256.63-20.8L256.63-20.8Q254.58-20.8 253.15-19.3 251.73-17.8 251-15.4 250.28-13 250.28-10.3L250.28-10.3Q250.28-6.65 251.4-5.43 252.53-4.2 254.73-4.2L254.73-4.2Q257.03-4.2 258.75-4.93 260.48-5.65 261.73-6.45L261.73-6.45Q262.13-6.7 262.43-6.85 262.73-7 262.93-7L262.93-7Q263.18-7 263.33-6.8 263.48-6.6 263.48-6.35L263.48-6.35Q263.48-5.45 262.68-4.25 261.88-3.05 260.4-1.9 258.93-0.75 256.93 0.03 254.93 0.8 252.53 0.8Z" opacity="1" transform="matrix(1,0,0,1,0,0)" fill="black" class="wordmark-text-0" id="SvgjsPath1070"></path></svg></g></svg></g></svg></g></svg></g><g transform="matrix(1,0,0,1,114.89198973498611,0)"><svg viewBox="0 0 165.73602053002776 165.73602053002776" height="165.73602053002776" width="165.73602053002776"><g><svg></svg></g><g id="SvgjsG1069"><svg viewBox="0 0 165.73602053002776 165.73602053002776" height="165.73602053002776" width="165.73602053002776"><g><path d="M0 82.868c0-45.767 37.101-82.868 82.868-82.868 45.767 0 82.868 37.101 82.868 82.868 0 45.767-37.101 82.868-82.868 82.868-45.767 0-82.868-37.101-82.868-82.868zM82.868 159.5c42.323 0 76.632-34.309 76.632-76.632 0-42.323-34.309-76.632-76.632-76.632-42.323 0-76.632 34.309-76.632 76.632 0 42.323 34.309 76.632 76.632 76.632z" fill="black" stroke="transparent"></path></g><g transform="matrix(1,0,0,1,45.53102733857613,37.32276431120366)"><svg viewBox="0 0 74.6739658528755 91.09049190762043" height="91.09049190762043" width="74.6739658528755"><g><svg xmlns="http://www.w3.org/2000/svg" data-name="Layer 1" viewBox="28.81 26.203485701691147 36.19033372416786 44.146514298308844" x="0" y="0" height="91.09049190762043" width="74.6739658528755" class="icon-cg-0" data-fill-palette-color="accent" id="SvgjsSvg1068"><path d="M40.68 30.5a2 2 0 0 0-1.62 2v6.72h0V57.66a2 2 0 0 1-2.24 2 8.73 8.73 0 0 0-1.13-0.07c-3.8 0-6.88 2.41-6.88 5.38s3.08 5.38 6.88 5.38 6.88-2.41 6.88-5.37V40.16a2 2 0 0 1 1.62-2l14.88-2.87a2 2 0 0 1 2.38 2V52.66a2 2 0 0 1-2.24 2 8.73 8.73 0 0 0-1.13-0.07c-3.8 0-6.87 2.41-6.87 5.38s3.08 5.38 6.88 5.38S65 62.91 65 59.94V28.24a2 2 0 0 0-2.38-2Z" fill="black"></path></svg></g></svg></g></svg></g></svg></g><g></g></svg></g><defs><mask></mask></defs></svg><rect width="365.4628258866396" height="247.2" fill="black" stroke="none" visibility="hidden"></rect></g></mask></svg><rect width="365.4628258866396" height="247.2" fill="black" stroke="none" visibility="hidden"></rect></g></mask><linearGradient x1="0" x2="1" y1="0.578" y2="0.595" id="dab8e515-928b-4e69-82ba-19de2f671bbc"><stop stop-color="#6ee2f5" offset="0"></stop><stop stop-color="#6454f0" offset="1"></stop></linearGradient><rect width="365.4628258866396" height="247.2" fill="url(#dab8e515-928b-4e69-82ba-19de2f671bbc)" mask="url(#f42f6022-7ce6-40ac-91b3-d9203f39019d)" data-fill-palette-color="accent"></rect><mask id="31bd6795-cd95-4fca-a35f-c3ef5077eb2b"><g id="SvgjsG1100"><svg viewBox="0 0 365.4628258866396 247.2" height="247.2" width="365.4628258866396"><g><svg viewBox="0 0 395.52 267.5307502556426" height="247.2" width="365.4628258866396"><g transform="matrix(1,0,0,1,0,198.3838620772379)"><svg viewBox="0 0 395.52 69.14688817840471" height="69.14688817840471" width="395.52"><g id="SvgjsG1099"><svg viewBox="0 0 395.52 69.14688817840471" height="69.14688817840471" width="395.52" id="SvgjsSvg1098"><g><svg viewBox="0 0 395.52 69.14688817840471" height="69.14688817840471" width="395.52"><g transform="matrix(1,0,0,1,0,0)"><svg width="395.52" viewBox="2.5 -34.806578371482004 262.28 45.856578371482" height="69.14688817840471" data-palette-color="url(#7e9f7b7d-421f-405b-9765-ca66d4159670)"></svg></g></svg></g></svg></g></svg></g><g transform="matrix(1,0,0,1,114.89198973498611,0)"><svg viewBox="0 0 165.73602053002776 165.73602053002776" height="165.73602053002776" width="165.73602053002776"><g><svg></svg></g><g id="SvgjsG1097"><svg viewBox="0 0 165.73602053002776 165.73602053002776" height="165.73602053002776" width="165.73602053002776"><g><path d="M0 82.868c0-45.767 37.101-82.868 82.868-82.868 45.767 0 82.868 37.101 82.868 82.868 0 45.767-37.101 82.868-82.868 82.868-45.767 0-82.868-37.101-82.868-82.868zM82.868 159.5c42.323 0 76.632-34.309 76.632-76.632 0-42.323-34.309-76.632-76.632-76.632-42.323 0-76.632 34.309-76.632 76.632 0 42.323 34.309 76.632 76.632 76.632z" fill="white" stroke="transparent"></path></g><g transform="matrix(1,0,0,1,45.53102733857613,37.32276431120366)"><svg viewBox="0 0 74.6739658528755 91.09049190762043" height="91.09049190762043" width="74.6739658528755"><g><svg xmlns="http://www.w3.org/2000/svg" data-name="Layer 1" viewBox="28.81 26.203485701691147 36.19033372416786 44.146514298308844" x="0" y="0" height="91.09049190762043" width="74.6739658528755" class="icon-cg-0" data-fill-palette-color="accent" id="SvgjsSvg1096"></svg></g></svg></g></svg></g></svg></g><g></g></svg></g><defs><mask></mask></defs><mask><g id="SvgjsG1095"><svg viewBox="0 0 365.4628258866396 247.2" height="247.2" width="365.4628258866396"><g><svg viewBox="0 0 395.52 267.5307502556426" height="247.2" width="365.4628258866396"><g transform="matrix(1,0,0,1,0,198.3838620772379)"><svg viewBox="0 0 395.52 69.14688817840471" height="69.14688817840471" width="395.52"><g id="SvgjsG1094"><svg viewBox="0 0 395.52 69.14688817840471" height="69.14688817840471" width="395.52" id="SvgjsSvg1093"><g><svg viewBox="0 0 395.52 69.14688817840471" height="69.14688817840471" width="395.52"><g transform="matrix(1,0,0,1,0,0)"><svg width="395.52" viewBox="2.5 -34.806578371482004 262.28 45.856578371482" height="69.14688817840471" data-palette-color="url(#7e9f7b7d-421f-405b-9765-ca66d4159670)"><path d="M3.8 0.6L3.8 0.6Q3 0.6 2.75-0.15 2.5-0.9 2.5-1.95L2.5-1.95Q2.5-3.7 2.7-5.68 2.9-7.65 3.1-9.55L3.1-9.55 5.85-34.75 10-34.8Q12.05-34.85 12.83-34.52 13.6-34.2 13.85-33.2L13.85-33.2 21.25-6.15 18.65-6.25 30.2-31.4Q30.85-32.8 32.6-33.77 34.35-34.75 36.85-34.75L36.85-34.75Q37.85-34.75 38.38-34.27 38.9-33.8 38.75-32.45L38.75-32.45 35.35 0.4 31.35 0.4Q30.7 0.4 30.35-0.4 30-1.2 30-2.65L30-2.65Q30-4.7 30.13-7.1 30.25-9.5 30.5-11.7L30.5-11.7 32.35-27.5 32.65-27.3 26.1-13.2Q24.1-8.9 22.85-6.38 21.6-3.85 20.83-2.6 20.05-1.35 19.5-0.98 18.95-0.6 18.35-0.6L18.35-0.6Q17.7-0.6 17.28-0.88 16.85-1.15 16.6-2.05L16.6-2.05 9.15-27.55 9.6-27.6 8.2-14.65Q7.75-10.7 7.8-8.35 7.85-6 8.13-4.73 8.4-3.45 8.65-2.75 8.9-2.05 8.9-1.45L8.9-1.45Q8.9-0.9 8.3-0.53 7.7-0.15 6.8 0.1 5.9 0.35 5.08 0.48 4.25 0.6 3.8 0.6ZM49.1 0.8L49.1 0.8Q45.25 0.8 43.15-1.63 41.05-4.05 41.05-8.3L41.05-8.3Q41.05-11.85 42.05-14.8 43.05-17.75 44.85-19.95 46.65-22.15 49.07-23.35 51.5-24.55 54.35-24.55L54.35-24.55Q57.75-24.55 59.55-23.1 61.35-21.65 61.35-18.95L61.35-18.95Q61.35-16.2 59.52-14.15 57.7-12.1 54.27-10.65 50.85-9.2 46.1-8.2L46.1-8.2 45.45-11.2Q48.2-11.55 50.5-12.4 52.8-13.25 54.2-14.68 55.6-16.1 55.6-18.05L55.6-18.05Q55.6-19.4 55.07-20.1 54.55-20.8 53.2-20.8L53.2-20.8Q51.15-20.8 49.72-19.3 48.3-17.8 47.57-15.4 46.85-13 46.85-10.3L46.85-10.3Q46.85-6.65 47.97-5.43 49.1-4.2 51.3-4.2L51.3-4.2Q53.6-4.2 55.32-4.93 57.05-5.65 58.3-6.45L58.3-6.45Q58.7-6.7 59-6.85 59.3-7 59.5-7L59.5-7Q59.75-7 59.9-6.8 60.05-6.6 60.05-6.35L60.05-6.35Q60.05-5.45 59.25-4.25 58.45-3.05 56.97-1.9 55.5-0.75 53.5 0.03 51.5 0.8 49.1 0.8ZM69.7 0.7L66.2 0.7Q65.3 0.7 64.8-0.4 64.3-1.5 64.35-2.95L64.35-2.95Q64.4-4.65 64.65-7 64.9-9.35 65.15-11.65L65.15-11.65 66.55-23.45Q66.85-25.7 66.7-27.45 66.55-29.2 66.3-30.55 66.05-31.9 66.05-32.85L66.05-32.85Q66.05-33.4 66.92-33.83 67.8-34.25 68.95-34.52 70.1-34.8 70.9-34.8L70.9-34.8Q71.75-34.8 72.4-33.58 73.05-32.35 73.05-30.75L73.05-30.75Q73.05-30.4 72.95-28.8 72.85-27.2 72.55-25.15L72.55-25.15 70.95-13.65Q70.45-10.05 70.25-6.48 70.05-2.9 69.7 0.7L69.7 0.7ZM84.49 0.75L84.49 0.75Q80.19 0.75 77.82-1.78 75.44-4.3 75.44-9.2L75.44-9.2Q75.44-12.45 76.52-15.23 77.59-18 79.44-20.1 81.29-22.2 83.72-23.38 86.14-24.55 88.84-24.55L88.84-24.55Q93.14-24.55 95.42-22 97.69-19.45 97.69-14.3L97.69-14.3Q97.69-11.2 96.67-8.47 95.64-5.75 93.84-3.68 92.04-1.6 89.64-0.43 87.24 0.75 84.49 0.75ZM85.69-3L85.69-3Q87.59-3 88.97-4.4 90.34-5.8 91.07-8.25 91.79-10.7 91.79-13.75L91.79-13.75Q91.79-17 90.82-18.9 89.84-20.8 87.59-20.8L87.59-20.8Q85.74-20.8 84.32-19.4 82.89-18 82.12-15.58 81.34-13.15 81.34-10.05L81.34-10.05Q81.34-6.6 82.44-4.8 83.54-3 85.69-3ZM105.04 0.8L105.04 0.8Q102.34 0.8 101.17-1.4 99.99-3.6 99.99-7.85L99.99-7.85Q99.99-11.5 101.02-14.55 102.04-17.6 103.89-19.83 105.74-22.05 108.19-23.28 110.64-24.5 113.49-24.5L113.49-24.5Q115.24-24.5 116.97-23.93 118.69-23.35 119.94-22.75L119.94-22.75 118.34-17.85Q116.99-18.75 115.52-19.4 114.04-20.05 112.82-20.4 111.59-20.75 110.94-20.75L110.94-20.75Q109.49-20.75 108.29-19.38 107.09-18 106.37-15.58 105.64-13.15 105.64-10L105.64-10Q105.64-7.1 106.07-5.6 106.49-4.1 107.44-4.1L107.44-4.1Q108.24-4.1 109.92-5.58 111.59-7.05 113.82-10.5 116.04-13.95 118.49-19.85L118.49-19.85 119.94-15.4Q117.29-9.4 114.69-5.85 112.09-2.3 109.67-0.75 107.24 0.8 105.04 0.8ZM121.74 0.5L118.24 0.5Q117.69 0.5 117.29-0.13 116.89-0.75 116.69-1.65 116.49-2.55 116.49-3.3L116.49-3.3Q116.49-4.55 116.92-6.15 117.34-7.75 117.99-10.2L117.99-10.2 118.99-13.95 117.54-15.55 118.09-20.8 118.79-21.65 119.19-34.8 123.09-34.8Q123.84-34.8 124.32-34.15 124.79-33.5 125.02-32.63 125.24-31.75 125.24-30.95L125.24-30.95Q125.24-30.45 125.19-29.83 125.14-29.2 124.99-28.13 124.84-27.05 124.54-25.15L124.54-25.15 122.89-13.65Q122.54-11.25 122.29-8.75 122.04-6.25 121.92-3.9 121.79-1.55 121.74 0.5L121.74 0.5ZM134.79 11.05L134.79 11.05Q132.64 11.05 130.99 10.38 129.34 9.7 128.39 8.2 127.44 6.7 127.44 4.2L127.44 4.2Q127.44 3.7 127.61 3.53 127.79 3.35 127.99 3.35L127.99 3.35Q128.24 3.35 128.59 3.55 128.94 3.75 129.59 4.15L129.59 4.15Q130.49 4.75 131.66 5.43 132.84 6.1 134.19 6.6 135.54 7.1 136.84 7.1L136.84 7.1Q138.14 7.1 139.24 6.28 140.34 5.45 141.31 3.4 142.29 1.35 143.19-2.25L143.19-2.25 145.99-13.65 146.29-13.7Q144.44-8.8 142.01-5.63 139.59-2.45 137.11-0.93 134.64 0.6 132.64 0.6L132.64 0.6Q130.54 0.6 129.54-0.55 128.54-1.7 128.54-3.75L128.54-3.75Q128.54-4.75 128.66-5.95 128.79-7.15 129.09-9.7L129.09-9.7 130.94-24.55 134.44-24.55Q135.29-24.55 135.74-23.58 136.19-22.6 136.19-21.2L136.19-21.2Q136.19-20.2 136.09-19.43 135.99-18.65 135.81-17.68 135.64-16.7 135.34-14.9L135.34-14.9 134.64-10.6Q134.44-9.2 134.31-8.13 134.19-7.05 134.19-6.35L134.19-6.35Q134.19-5.3 134.41-4.78 134.64-4.25 135.44-4.25L135.44-4.25Q136.29-4.25 137.41-5.35 138.54-6.45 139.74-8.2 140.94-9.95 141.96-11.95 142.99-13.95 143.64-15.83 144.29-17.7 144.29-18.95L144.29-18.95Q144.29-19.8 144.14-20.78 143.99-21.75 143.99-22.5L143.99-22.5Q143.99-23.1 144.96-23.58 145.94-24.05 147.16-24.3 148.39-24.55 149.09-24.55L149.09-24.55Q149.79-24.55 150.21-23.9 150.64-23.25 150.64-21.45L150.64-21.45Q150.64-20.6 150.36-18.93 150.09-17.25 149.99-15.8L149.99-15.8 148.74-1.5Q148.44 1.75 147.11 4.13 145.79 6.5 143.79 8.03 141.79 9.55 139.44 10.3 137.09 11.05 134.79 11.05ZM165.49 0.7L165.49 0.7Q165.09 0.7 164.71 0.45 164.34 0.2 164.19-0.75L164.19-0.75Q163.64-4.6 162.71-8.7 161.79-12.8 160.71-16.88 159.64-20.95 158.59-24.65L158.59-24.65Q157.94-27 157.44-28.05 156.94-29.1 156.39-29.85L156.39-29.85Q155.84-30.6 155.26-31.1 154.69-31.6 154.69-32.05L154.69-32.05Q154.69-32.55 155.41-33 156.14-33.45 157.16-33.83 158.19-34.2 159.21-34.4 160.24-34.6 160.84-34.6L160.84-34.6Q161.69-34.6 162.36-33.75 163.04-32.9 163.71-30.93 164.39-28.95 165.14-25.5L165.14-25.5 169.69-4.65 167.64-4.05 177.59-24.55Q178.29-26 178.64-26.95 178.99-27.9 179.16-28.73 179.34-29.55 179.44-30.55L179.44-30.55Q179.54-31.5 180.39-32.25 181.24-33 182.34-33.55 183.44-34.1 184.44-34.4 185.44-34.7 185.89-34.7L185.89-34.7Q187.24-34.7 187.24-33.85L187.24-33.85Q187.24-33.3 186.84-32.55L186.84-32.55 171.64-2.6Q171.29-1.9 170.46-1.13 169.64-0.35 168.41 0.18 167.19 0.7 165.49 0.7ZM190.98 0.8L190.98 0.8Q187.13 0.8 185.03-1.63 182.93-4.05 182.93-8.3L182.93-8.3Q182.93-11.85 183.93-14.8 184.93-17.75 186.73-19.95 188.53-22.15 190.96-23.35 193.38-24.55 196.23-24.55L196.23-24.55Q199.63-24.55 201.43-23.1 203.23-21.65 203.23-18.95L203.23-18.95Q203.23-16.2 201.41-14.15 199.58-12.1 196.16-10.65 192.73-9.2 187.98-8.2L187.98-8.2 187.33-11.2Q190.08-11.55 192.38-12.4 194.68-13.25 196.08-14.68 197.48-16.1 197.48-18.05L197.48-18.05Q197.48-19.4 196.96-20.1 196.43-20.8 195.08-20.8L195.08-20.8Q193.03-20.8 191.61-19.3 190.18-17.8 189.46-15.4 188.73-13 188.73-10.3L188.73-10.3Q188.73-6.65 189.86-5.43 190.98-4.2 193.18-4.2L193.18-4.2Q195.48-4.2 197.21-4.93 198.93-5.65 200.18-6.45L200.18-6.45Q200.58-6.7 200.88-6.85 201.18-7 201.38-7L201.38-7Q201.63-7 201.78-6.8 201.93-6.6 201.93-6.35L201.93-6.35Q201.93-5.45 201.13-4.25 200.33-3.05 198.86-1.9 197.38-0.75 195.38 0.03 193.38 0.8 190.98 0.8ZM211.38-1.2L211.38-1.2 210.18-8.75Q212.03-13.55 213.96-17.07 215.88-20.6 217.88-22.55 219.88-24.5 221.93-24.5L221.93-24.5Q223.08-24.5 223.58-23.78 224.08-23.05 224.08-21.95L224.08-21.95Q224.08-20.95 223.86-20.03 223.63-19.1 223.21-18.5 222.78-17.9 222.18-17.9L222.18-17.9Q221.63-17.9 220.96-18.25 220.28-18.6 219.13-18.6L219.13-18.6Q218.38-18.6 217.23-17.05 216.08-15.5 214.86-12.93 213.63-10.35 212.68-7.28 211.73-4.2 211.38-1.2ZM207.18 0.7L207.18 0.7Q206.53 0.7 206.21 0.48 205.88 0.25 205.86-0.7 205.83-1.65 206.08-3.75L206.08-3.75 208.43-24.55 211.93-24.55Q212.68-24.55 213.28-23.45 213.88-22.35 213.88-20.95L213.88-20.95Q213.88-20.3 213.51-18.93 213.13-17.55 212.63-16.03 212.13-14.5 211.73-13.35L211.73-13.35 210.43-9.25 212.28-9.55 211.38-1.2Q211.33-0.7 210.78-0.33 210.23 0.05 209.51 0.28 208.78 0.5 208.13 0.6 207.48 0.7 207.18 0.7ZM231.63 0.8L231.63 0.8Q227.83 0.8 225.65-0.38 223.48-1.55 223.48-3.55L223.48-3.55Q223.48-4.45 223.75-5.23 224.03-6 224.58-6L224.58-6Q224.78-6 225.03-5.9 225.28-5.8 225.98-5.35L225.98-5.35Q226.98-4.7 228.2-4.15 229.43-3.6 230.7-3.28 231.98-2.95 233.08-2.95L233.08-2.95Q234.68-2.95 235.4-3.73 236.13-4.5 236.13-5.8L236.13-5.8Q236.13-6.75 235.55-7.38 234.98-8 233.73-8.8L233.73-8.8 230.63-10.8Q228.68-12.05 227.35-13.48 226.03-14.9 226.03-17.2L226.03-17.2Q226.03-20.45 228.53-22.48 231.03-24.5 235.58-24.5L235.58-24.5Q238.78-24.5 240.28-23.85 241.78-23.2 241.78-21.6L241.78-21.6Q241.78-20.35 241.4-19.5 241.03-18.65 240.38-18.65L240.38-18.65Q240.18-18.65 239.85-18.75 239.53-18.85 239.28-19L239.28-19Q238.88-19.25 238.03-19.7 237.18-20.15 236.13-20.53 235.08-20.9 233.93-20.9L233.93-20.9Q232.78-20.9 232.05-20.23 231.33-19.55 231.33-18.4L231.33-18.4Q231.33-17.45 231.93-16.8 232.53-16.15 233.93-15.45L233.93-15.45 237.18-13.95Q239.23-13 240.5-11.73 241.78-10.45 241.78-7.95L241.78-7.95Q241.78-5 240.35-3.05 238.93-1.1 236.6-0.15 234.28 0.8 231.63 0.8ZM252.53 0.8L252.53 0.8Q248.68 0.8 246.58-1.63 244.48-4.05 244.48-8.3L244.48-8.3Q244.48-11.85 245.48-14.8 246.48-17.75 248.28-19.95 250.08-22.15 252.5-23.35 254.93-24.55 257.78-24.55L257.78-24.55Q261.18-24.55 262.98-23.1 264.78-21.65 264.78-18.95L264.78-18.95Q264.78-16.2 262.95-14.15 261.13-12.1 257.7-10.65 254.28-9.2 249.53-8.2L249.53-8.2 248.88-11.2Q251.63-11.55 253.93-12.4 256.23-13.25 257.63-14.68 259.03-16.1 259.03-18.05L259.03-18.05Q259.03-19.4 258.5-20.1 257.98-20.8 256.63-20.8L256.63-20.8Q254.58-20.8 253.15-19.3 251.73-17.8 251-15.4 250.28-13 250.28-10.3L250.28-10.3Q250.28-6.65 251.4-5.43 252.53-4.2 254.73-4.2L254.73-4.2Q257.03-4.2 258.75-4.93 260.48-5.65 261.73-6.45L261.73-6.45Q262.13-6.7 262.43-6.85 262.73-7 262.93-7L262.93-7Q263.18-7 263.33-6.8 263.48-6.6 263.48-6.35L263.48-6.35Q263.48-5.45 262.68-4.25 261.88-3.05 260.4-1.9 258.93-0.75 256.93 0.03 254.93 0.8 252.53 0.8Z" opacity="1" transform="matrix(1,0,0,1,0,0)" fill="black" class="wordmark-text-0" id="SvgjsPath1092"></path></svg></g></svg></g></svg></g></svg></g><g transform="matrix(1,0,0,1,114.89198973498611,0)"><svg viewBox="0 0 165.73602053002776 165.73602053002776" height="165.73602053002776" width="165.73602053002776"><g><svg></svg></g><g id="SvgjsG1091"><svg viewBox="0 0 165.73602053002776 165.73602053002776" height="165.73602053002776" width="165.73602053002776"><g><path d="M0 82.868c0-45.767 37.101-82.868 82.868-82.868 45.767 0 82.868 37.101 82.868 82.868 0 45.767-37.101 82.868-82.868 82.868-45.767 0-82.868-37.101-82.868-82.868zM82.868 159.5c42.323 0 76.632-34.309 76.632-76.632 0-42.323-34.309-76.632-76.632-76.632-42.323 0-76.632 34.309-76.632 76.632 0 42.323 34.309 76.632 76.632 76.632z" fill="black" stroke="transparent"></path></g><g transform="matrix(1,0,0,1,45.53102733857613,37.32276431120366)"><svg viewBox="0 0 74.6739658528755 91.09049190762043" height="91.09049190762043" width="74.6739658528755"><g><svg xmlns="http://www.w3.org/2000/svg" data-name="Layer 1" viewBox="28.81 26.203485701691147 36.19033372416786 44.146514298308844" x="0" y="0" height="91.09049190762043" width="74.6739658528755" class="icon-cg-0" data-fill-palette-color="accent" id="SvgjsSvg1090"><path d="M40.68 30.5a2 2 0 0 0-1.62 2v6.72h0V57.66a2 2 0 0 1-2.24 2 8.73 8.73 0 0 0-1.13-0.07c-3.8 0-6.88 2.41-6.88 5.38s3.08 5.38 6.88 5.38 6.88-2.41 6.88-5.37V40.16a2 2 0 0 1 1.62-2l14.88-2.87a2 2 0 0 1 2.38 2V52.66a2 2 0 0 1-2.24 2 8.73 8.73 0 0 0-1.13-0.07c-3.8 0-6.87 2.41-6.87 5.38s3.08 5.38 6.88 5.38S65 62.91 65 59.94V28.24a2 2 0 0 0-2.38-2Z" fill="black"></path></svg></g></svg></g></svg></g></svg></g><g></g></svg></g><defs><mask></mask></defs></svg><rect width="365.4628258866396" height="247.2" fill="black" stroke="none" visibility="hidden"></rect></g></mask><mask><g id="SvgjsG1089"><svg viewBox="0 0 365.4628258866396 247.2" height="247.2" width="365.4628258866396"><g><svg viewBox="0 0 395.52 267.5307502556426" height="247.2" width="365.4628258866396"><g transform="matrix(1,0,0,1,0,198.3838620772379)"><svg viewBox="0 0 395.52 69.14688817840471" height="69.14688817840471" width="395.52"><g id="SvgjsG1088"><svg viewBox="0 0 395.52 69.14688817840471" height="69.14688817840471" width="395.52" id="SvgjsSvg1087"><g><svg viewBox="0 0 395.52 69.14688817840471" height="69.14688817840471" width="395.52"><g transform="matrix(1,0,0,1,0,0)"><svg width="395.52" viewBox="2.5 -34.806578371482004 262.28 45.856578371482" height="69.14688817840471" data-palette-color="url(#7e9f7b7d-421f-405b-9765-ca66d4159670)"></svg></g></svg></g></svg></g></svg></g><g transform="matrix(1,0,0,1,114.89198973498611,0)"><svg viewBox="0 0 165.73602053002776 165.73602053002776" height="165.73602053002776" width="165.73602053002776"><g><svg></svg></g><g id="SvgjsG1086"><svg viewBox="0 0 165.73602053002776 165.73602053002776" height="165.73602053002776" width="165.73602053002776"><g><path d="M0 82.868c0-45.767 37.101-82.868 82.868-82.868 45.767 0 82.868 37.101 82.868 82.868 0 45.767-37.101 82.868-82.868 82.868-45.767 0-82.868-37.101-82.868-82.868zM82.868 159.5c42.323 0 76.632-34.309 76.632-76.632 0-42.323-34.309-76.632-76.632-76.632-42.323 0-76.632 34.309-76.632 76.632 0 42.323 34.309 76.632 76.632 76.632z" fill="black" stroke="transparent"></path></g><g transform="matrix(1,0,0,1,45.53102733857613,37.32276431120366)"><svg viewBox="0 0 74.6739658528755 91.09049190762043" height="91.09049190762043" width="74.6739658528755"><g><svg xmlns="http://www.w3.org/2000/svg" data-name="Layer 1" viewBox="28.81 26.203485701691147 36.19033372416786 44.146514298308844" x="0" y="0" height="91.09049190762043" width="74.6739658528755" class="icon-cg-0" data-fill-palette-color="accent" id="SvgjsSvg1085"><path d="M40.68 30.5a2 2 0 0 0-1.62 2v6.72h0V57.66a2 2 0 0 1-2.24 2 8.73 8.73 0 0 0-1.13-0.07c-3.8 0-6.88 2.41-6.88 5.38s3.08 5.38 6.88 5.38 6.88-2.41 6.88-5.37V40.16a2 2 0 0 1 1.62-2l14.88-2.87a2 2 0 0 1 2.38 2V52.66a2 2 0 0 1-2.24 2 8.73 8.73 0 0 0-1.13-0.07c-3.8 0-6.87 2.41-6.87 5.38s3.08 5.38 6.88 5.38S65 62.91 65 59.94V28.24a2 2 0 0 0-2.38-2Z" fill="black"></path></svg></g></svg></g></svg></g></svg></g><g></g></svg></g><defs><mask></mask></defs><mask><g id="SvgjsG1084"><svg viewBox="0 0 365.4628258866396 247.2" height="247.2" width="365.4628258866396"><g><svg viewBox="0 0 395.52 267.5307502556426" height="247.2" width="365.4628258866396"><g transform="matrix(1,0,0,1,0,198.3838620772379)"><svg viewBox="0 0 395.52 69.14688817840471" height="69.14688817840471" width="395.52"><g id="SvgjsG1083"><svg viewBox="0 0 395.52 69.14688817840471" height="69.14688817840471" width="395.52" id="SvgjsSvg1082"><g><svg viewBox="0 0 395.52 69.14688817840471" height="69.14688817840471" width="395.52"><g transform="matrix(1,0,0,1,0,0)"><svg width="395.52" viewBox="2.5 -34.806578371482004 262.28 45.856578371482" height="69.14688817840471" data-palette-color="url(#7e9f7b7d-421f-405b-9765-ca66d4159670)"><path d="M3.8 0.6L3.8 0.6Q3 0.6 2.75-0.15 2.5-0.9 2.5-1.95L2.5-1.95Q2.5-3.7 2.7-5.68 2.9-7.65 3.1-9.55L3.1-9.55 5.85-34.75 10-34.8Q12.05-34.85 12.83-34.52 13.6-34.2 13.85-33.2L13.85-33.2 21.25-6.15 18.65-6.25 30.2-31.4Q30.85-32.8 32.6-33.77 34.35-34.75 36.85-34.75L36.85-34.75Q37.85-34.75 38.38-34.27 38.9-33.8 38.75-32.45L38.75-32.45 35.35 0.4 31.35 0.4Q30.7 0.4 30.35-0.4 30-1.2 30-2.65L30-2.65Q30-4.7 30.13-7.1 30.25-9.5 30.5-11.7L30.5-11.7 32.35-27.5 32.65-27.3 26.1-13.2Q24.1-8.9 22.85-6.38 21.6-3.85 20.83-2.6 20.05-1.35 19.5-0.98 18.95-0.6 18.35-0.6L18.35-0.6Q17.7-0.6 17.28-0.88 16.85-1.15 16.6-2.05L16.6-2.05 9.15-27.55 9.6-27.6 8.2-14.65Q7.75-10.7 7.8-8.35 7.85-6 8.13-4.73 8.4-3.45 8.65-2.75 8.9-2.05 8.9-1.45L8.9-1.45Q8.9-0.9 8.3-0.53 7.7-0.15 6.8 0.1 5.9 0.35 5.08 0.48 4.25 0.6 3.8 0.6ZM49.1 0.8L49.1 0.8Q45.25 0.8 43.15-1.63 41.05-4.05 41.05-8.3L41.05-8.3Q41.05-11.85 42.05-14.8 43.05-17.75 44.85-19.95 46.65-22.15 49.07-23.35 51.5-24.55 54.35-24.55L54.35-24.55Q57.75-24.55 59.55-23.1 61.35-21.65 61.35-18.95L61.35-18.95Q61.35-16.2 59.52-14.15 57.7-12.1 54.27-10.65 50.85-9.2 46.1-8.2L46.1-8.2 45.45-11.2Q48.2-11.55 50.5-12.4 52.8-13.25 54.2-14.68 55.6-16.1 55.6-18.05L55.6-18.05Q55.6-19.4 55.07-20.1 54.55-20.8 53.2-20.8L53.2-20.8Q51.15-20.8 49.72-19.3 48.3-17.8 47.57-15.4 46.85-13 46.85-10.3L46.85-10.3Q46.85-6.65 47.97-5.43 49.1-4.2 51.3-4.2L51.3-4.2Q53.6-4.2 55.32-4.93 57.05-5.65 58.3-6.45L58.3-6.45Q58.7-6.7 59-6.85 59.3-7 59.5-7L59.5-7Q59.75-7 59.9-6.8 60.05-6.6 60.05-6.35L60.05-6.35Q60.05-5.45 59.25-4.25 58.45-3.05 56.97-1.9 55.5-0.75 53.5 0.03 51.5 0.8 49.1 0.8ZM69.7 0.7L66.2 0.7Q65.3 0.7 64.8-0.4 64.3-1.5 64.35-2.95L64.35-2.95Q64.4-4.65 64.65-7 64.9-9.35 65.15-11.65L65.15-11.65 66.55-23.45Q66.85-25.7 66.7-27.45 66.55-29.2 66.3-30.55 66.05-31.9 66.05-32.85L66.05-32.85Q66.05-33.4 66.92-33.83 67.8-34.25 68.95-34.52 70.1-34.8 70.9-34.8L70.9-34.8Q71.75-34.8 72.4-33.58 73.05-32.35 73.05-30.75L73.05-30.75Q73.05-30.4 72.95-28.8 72.85-27.2 72.55-25.15L72.55-25.15 70.95-13.65Q70.45-10.05 70.25-6.48 70.05-2.9 69.7 0.7L69.7 0.7ZM84.49 0.75L84.49 0.75Q80.19 0.75 77.82-1.78 75.44-4.3 75.44-9.2L75.44-9.2Q75.44-12.45 76.52-15.23 77.59-18 79.44-20.1 81.29-22.2 83.72-23.38 86.14-24.55 88.84-24.55L88.84-24.55Q93.14-24.55 95.42-22 97.69-19.45 97.69-14.3L97.69-14.3Q97.69-11.2 96.67-8.47 95.64-5.75 93.84-3.68 92.04-1.6 89.64-0.43 87.24 0.75 84.49 0.75ZM85.69-3L85.69-3Q87.59-3 88.97-4.4 90.34-5.8 91.07-8.25 91.79-10.7 91.79-13.75L91.79-13.75Q91.79-17 90.82-18.9 89.84-20.8 87.59-20.8L87.59-20.8Q85.74-20.8 84.32-19.4 82.89-18 82.12-15.58 81.34-13.15 81.34-10.05L81.34-10.05Q81.34-6.6 82.44-4.8 83.54-3 85.69-3ZM105.04 0.8L105.04 0.8Q102.34 0.8 101.17-1.4 99.99-3.6 99.99-7.85L99.99-7.85Q99.99-11.5 101.02-14.55 102.04-17.6 103.89-19.83 105.74-22.05 108.19-23.28 110.64-24.5 113.49-24.5L113.49-24.5Q115.24-24.5 116.97-23.93 118.69-23.35 119.94-22.75L119.94-22.75 118.34-17.85Q116.99-18.75 115.52-19.4 114.04-20.05 112.82-20.4 111.59-20.75 110.94-20.75L110.94-20.75Q109.49-20.75 108.29-19.38 107.09-18 106.37-15.58 105.64-13.15 105.64-10L105.64-10Q105.64-7.1 106.07-5.6 106.49-4.1 107.44-4.1L107.44-4.1Q108.24-4.1 109.92-5.58 111.59-7.05 113.82-10.5 116.04-13.95 118.49-19.85L118.49-19.85 119.94-15.4Q117.29-9.4 114.69-5.85 112.09-2.3 109.67-0.75 107.24 0.8 105.04 0.8ZM121.74 0.5L118.24 0.5Q117.69 0.5 117.29-0.13 116.89-0.75 116.69-1.65 116.49-2.55 116.49-3.3L116.49-3.3Q116.49-4.55 116.92-6.15 117.34-7.75 117.99-10.2L117.99-10.2 118.99-13.95 117.54-15.55 118.09-20.8 118.79-21.65 119.19-34.8 123.09-34.8Q123.84-34.8 124.32-34.15 124.79-33.5 125.02-32.63 125.24-31.75 125.24-30.95L125.24-30.95Q125.24-30.45 125.19-29.83 125.14-29.2 124.99-28.13 124.84-27.05 124.54-25.15L124.54-25.15 122.89-13.65Q122.54-11.25 122.29-8.75 122.04-6.25 121.92-3.9 121.79-1.55 121.74 0.5L121.74 0.5ZM134.79 11.05L134.79 11.05Q132.64 11.05 130.99 10.38 129.34 9.7 128.39 8.2 127.44 6.7 127.44 4.2L127.44 4.2Q127.44 3.7 127.61 3.53 127.79 3.35 127.99 3.35L127.99 3.35Q128.24 3.35 128.59 3.55 128.94 3.75 129.59 4.15L129.59 4.15Q130.49 4.75 131.66 5.43 132.84 6.1 134.19 6.6 135.54 7.1 136.84 7.1L136.84 7.1Q138.14 7.1 139.24 6.28 140.34 5.45 141.31 3.4 142.29 1.35 143.19-2.25L143.19-2.25 145.99-13.65 146.29-13.7Q144.44-8.8 142.01-5.63 139.59-2.45 137.11-0.93 134.64 0.6 132.64 0.6L132.64 0.6Q130.54 0.6 129.54-0.55 128.54-1.7 128.54-3.75L128.54-3.75Q128.54-4.75 128.66-5.95 128.79-7.15 129.09-9.7L129.09-9.7 130.94-24.55 134.44-24.55Q135.29-24.55 135.74-23.58 136.19-22.6 136.19-21.2L136.19-21.2Q136.19-20.2 136.09-19.43 135.99-18.65 135.81-17.68 135.64-16.7 135.34-14.9L135.34-14.9 134.64-10.6Q134.44-9.2 134.31-8.13 134.19-7.05 134.19-6.35L134.19-6.35Q134.19-5.3 134.41-4.78 134.64-4.25 135.44-4.25L135.44-4.25Q136.29-4.25 137.41-5.35 138.54-6.45 139.74-8.2 140.94-9.95 141.96-11.95 142.99-13.95 143.64-15.83 144.29-17.7 144.29-18.95L144.29-18.95Q144.29-19.8 144.14-20.78 143.99-21.75 143.99-22.5L143.99-22.5Q143.99-23.1 144.96-23.58 145.94-24.05 147.16-24.3 148.39-24.55 149.09-24.55L149.09-24.55Q149.79-24.55 150.21-23.9 150.64-23.25 150.64-21.45L150.64-21.45Q150.64-20.6 150.36-18.93 150.09-17.25 149.99-15.8L149.99-15.8 148.74-1.5Q148.44 1.75 147.11 4.13 145.79 6.5 143.79 8.03 141.79 9.55 139.44 10.3 137.09 11.05 134.79 11.05ZM165.49 0.7L165.49 0.7Q165.09 0.7 164.71 0.45 164.34 0.2 164.19-0.75L164.19-0.75Q163.64-4.6 162.71-8.7 161.79-12.8 160.71-16.88 159.64-20.95 158.59-24.65L158.59-24.65Q157.94-27 157.44-28.05 156.94-29.1 156.39-29.85L156.39-29.85Q155.84-30.6 155.26-31.1 154.69-31.6 154.69-32.05L154.69-32.05Q154.69-32.55 155.41-33 156.14-33.45 157.16-33.83 158.19-34.2 159.21-34.4 160.24-34.6 160.84-34.6L160.84-34.6Q161.69-34.6 162.36-33.75 163.04-32.9 163.71-30.93 164.39-28.95 165.14-25.5L165.14-25.5 169.69-4.65 167.64-4.05 177.59-24.55Q178.29-26 178.64-26.95 178.99-27.9 179.16-28.73 179.34-29.55 179.44-30.55L179.44-30.55Q179.54-31.5 180.39-32.25 181.24-33 182.34-33.55 183.44-34.1 184.44-34.4 185.44-34.7 185.89-34.7L185.89-34.7Q187.24-34.7 187.24-33.85L187.24-33.85Q187.24-33.3 186.84-32.55L186.84-32.55 171.64-2.6Q171.29-1.9 170.46-1.13 169.64-0.35 168.41 0.18 167.19 0.7 165.49 0.7ZM190.98 0.8L190.98 0.8Q187.13 0.8 185.03-1.63 182.93-4.05 182.93-8.3L182.93-8.3Q182.93-11.85 183.93-14.8 184.93-17.75 186.73-19.95 188.53-22.15 190.96-23.35 193.38-24.55 196.23-24.55L196.23-24.55Q199.63-24.55 201.43-23.1 203.23-21.65 203.23-18.95L203.23-18.95Q203.23-16.2 201.41-14.15 199.58-12.1 196.16-10.65 192.73-9.2 187.98-8.2L187.98-8.2 187.33-11.2Q190.08-11.55 192.38-12.4 194.68-13.25 196.08-14.68 197.48-16.1 197.48-18.05L197.48-18.05Q197.48-19.4 196.96-20.1 196.43-20.8 195.08-20.8L195.08-20.8Q193.03-20.8 191.61-19.3 190.18-17.8 189.46-15.4 188.73-13 188.73-10.3L188.73-10.3Q188.73-6.65 189.86-5.43 190.98-4.2 193.18-4.2L193.18-4.2Q195.48-4.2 197.21-4.93 198.93-5.65 200.18-6.45L200.18-6.45Q200.58-6.7 200.88-6.85 201.18-7 201.38-7L201.38-7Q201.63-7 201.78-6.8 201.93-6.6 201.93-6.35L201.93-6.35Q201.93-5.45 201.13-4.25 200.33-3.05 198.86-1.9 197.38-0.75 195.38 0.03 193.38 0.8 190.98 0.8ZM211.38-1.2L211.38-1.2 210.18-8.75Q212.03-13.55 213.96-17.07 215.88-20.6 217.88-22.55 219.88-24.5 221.93-24.5L221.93-24.5Q223.08-24.5 223.58-23.78 224.08-23.05 224.08-21.95L224.08-21.95Q224.08-20.95 223.86-20.03 223.63-19.1 223.21-18.5 222.78-17.9 222.18-17.9L222.18-17.9Q221.63-17.9 220.96-18.25 220.28-18.6 219.13-18.6L219.13-18.6Q218.38-18.6 217.23-17.05 216.08-15.5 214.86-12.93 213.63-10.35 212.68-7.28 211.73-4.2 211.38-1.2ZM207.18 0.7L207.18 0.7Q206.53 0.7 206.21 0.48 205.88 0.25 205.86-0.7 205.83-1.65 206.08-3.75L206.08-3.75 208.43-24.55 211.93-24.55Q212.68-24.55 213.28-23.45 213.88-22.35 213.88-20.95L213.88-20.95Q213.88-20.3 213.51-18.93 213.13-17.55 212.63-16.03 212.13-14.5 211.73-13.35L211.73-13.35 210.43-9.25 212.28-9.55 211.38-1.2Q211.33-0.7 210.78-0.33 210.23 0.05 209.51 0.28 208.78 0.5 208.13 0.6 207.48 0.7 207.18 0.7ZM231.63 0.8L231.63 0.8Q227.83 0.8 225.65-0.38 223.48-1.55 223.48-3.55L223.48-3.55Q223.48-4.45 223.75-5.23 224.03-6 224.58-6L224.58-6Q224.78-6 225.03-5.9 225.28-5.8 225.98-5.35L225.98-5.35Q226.98-4.7 228.2-4.15 229.43-3.6 230.7-3.28 231.98-2.95 233.08-2.95L233.08-2.95Q234.68-2.95 235.4-3.73 236.13-4.5 236.13-5.8L236.13-5.8Q236.13-6.75 235.55-7.38 234.98-8 233.73-8.8L233.73-8.8 230.63-10.8Q228.68-12.05 227.35-13.48 226.03-14.9 226.03-17.2L226.03-17.2Q226.03-20.45 228.53-22.48 231.03-24.5 235.58-24.5L235.58-24.5Q238.78-24.5 240.28-23.85 241.78-23.2 241.78-21.6L241.78-21.6Q241.78-20.35 241.4-19.5 241.03-18.65 240.38-18.65L240.38-18.65Q240.18-18.65 239.85-18.75 239.53-18.85 239.28-19L239.28-19Q238.88-19.25 238.03-19.7 237.18-20.15 236.13-20.53 235.08-20.9 233.93-20.9L233.93-20.9Q232.78-20.9 232.05-20.23 231.33-19.55 231.33-18.4L231.33-18.4Q231.33-17.45 231.93-16.8 232.53-16.15 233.93-15.45L233.93-15.45 237.18-13.95Q239.23-13 240.5-11.73 241.78-10.45 241.78-7.95L241.78-7.95Q241.78-5 240.35-3.05 238.93-1.1 236.6-0.15 234.28 0.8 231.63 0.8ZM252.53 0.8L252.53 0.8Q248.68 0.8 246.58-1.63 244.48-4.05 244.48-8.3L244.48-8.3Q244.48-11.85 245.48-14.8 246.48-17.75 248.28-19.95 250.08-22.15 252.5-23.35 254.93-24.55 257.78-24.55L257.78-24.55Q261.18-24.55 262.98-23.1 264.78-21.65 264.78-18.95L264.78-18.95Q264.78-16.2 262.95-14.15 261.13-12.1 257.7-10.65 254.28-9.2 249.53-8.2L249.53-8.2 248.88-11.2Q251.63-11.55 253.93-12.4 256.23-13.25 257.63-14.68 259.03-16.1 259.03-18.05L259.03-18.05Q259.03-19.4 258.5-20.1 257.98-20.8 256.63-20.8L256.63-20.8Q254.58-20.8 253.15-19.3 251.73-17.8 251-15.4 250.28-13 250.28-10.3L250.28-10.3Q250.28-6.65 251.4-5.43 252.53-4.2 254.73-4.2L254.73-4.2Q257.03-4.2 258.75-4.93 260.48-5.65 261.73-6.45L261.73-6.45Q262.13-6.7 262.43-6.85 262.73-7 262.93-7L262.93-7Q263.18-7 263.33-6.8 263.48-6.6 263.48-6.35L263.48-6.35Q263.48-5.45 262.68-4.25 261.88-3.05 260.4-1.9 258.93-0.75 256.93 0.03 254.93 0.8 252.53 0.8Z" opacity="1" transform="matrix(1,0,0,1,0,0)" fill="black" class="wordmark-text-0" id="SvgjsPath1081"></path></svg></g></svg></g></svg></g></svg></g><g transform="matrix(1,0,0,1,114.89198973498611,0)"><svg viewBox="0 0 165.73602053002776 165.73602053002776" height="165.73602053002776" width="165.73602053002776"><g><svg></svg></g><g id="SvgjsG1080"><svg viewBox="0 0 165.73602053002776 165.73602053002776" height="165.73602053002776" width="165.73602053002776"><g><path d="M0 82.868c0-45.767 37.101-82.868 82.868-82.868 45.767 0 82.868 37.101 82.868 82.868 0 45.767-37.101 82.868-82.868 82.868-45.767 0-82.868-37.101-82.868-82.868zM82.868 159.5c42.323 0 76.632-34.309 76.632-76.632 0-42.323-34.309-76.632-76.632-76.632-42.323 0-76.632 34.309-76.632 76.632 0 42.323 34.309 76.632 76.632 76.632z" fill="black" stroke="transparent"></path></g><g transform="matrix(1,0,0,1,45.53102733857613,37.32276431120366)"><svg viewBox="0 0 74.6739658528755 91.09049190762043" height="91.09049190762043" width="74.6739658528755"><g><svg xmlns="http://www.w3.org/2000/svg" data-name="Layer 1" viewBox="28.81 26.203485701691147 36.19033372416786 44.146514298308844" x="0" y="0" height="91.09049190762043" width="74.6739658528755" class="icon-cg-0" data-fill-palette-color="accent" id="SvgjsSvg1079"><path d="M40.68 30.5a2 2 0 0 0-1.62 2v6.72h0V57.66a2 2 0 0 1-2.24 2 8.73 8.73 0 0 0-1.13-0.07c-3.8 0-6.88 2.41-6.88 5.38s3.08 5.38 6.88 5.38 6.88-2.41 6.88-5.37V40.16a2 2 0 0 1 1.62-2l14.88-2.87a2 2 0 0 1 2.38 2V52.66a2 2 0 0 1-2.24 2 8.73 8.73 0 0 0-1.13-0.07c-3.8 0-6.87 2.41-6.87 5.38s3.08 5.38 6.88 5.38S65 62.91 65 59.94V28.24a2 2 0 0 0-2.38-2Z" fill="black"></path></svg></g></svg></g></svg></g></svg></g><g></g></svg></g><defs><mask></mask></defs></svg><rect width="365.4628258866396" height="247.2" fill="black" stroke="none" visibility="hidden"></rect></g></mask></svg><rect width="365.4628258866396" height="247.2" fill="black" stroke="none" visibility="hidden"></rect></g></mask></svg><rect width="365.4628258866396" height="247.2" fill="black" stroke="none" visibility="hidden"></rect></g></mask><linearGradient x1="0" x2="1" y1="0.578" y2="0.595" id="45e4d387-1aa2-4b5f-a58e-e762442408ed"><stop stop-color="#6ee2f5" offset="0"></stop><stop stop-color="#6454f0" offset="1"></stop></linearGradient></svg><rect width="365.4628258866396" height="247.2" fill="none" stroke="none" visibility="hidden"></rect></g></svg></g></svg>